# xmcd
#
# Track frame offsets:
# 150
# 17606
# 35086
# 55718
# 75731
# 95427
# 115854
# 135281
# 151560
# 173203
# 188890
#
# Disc length: 3350 seconds
#
#
# Revision: 0
# Processed by: cddbd v1.5.2PL0 Copyright (c) Steve Scherf et al.
# Submitted via: FreeRIP 2.945 
#
DISCID=7b0d140b
DTITLE=Bart Crow Band - Finally...
DYEAR=2006
DGENRE=Texas Country
TTITLE0=Nothing's Wrong
TTITLE1=Wear My Ring
TTITLE2=Driftin' In The Wind
TTITLE3=All I Need
TTITLE4=Rodeo Gypsy
TTITLE5=Walk On By
TTITLE6=Burnout
TTITLE7=Quarters
TTITLE8=Dog House Roses
TTITLE9=Lay It On The Line
TTITLE10=Outlaw
EXTD=
EXTT0=
EXTT1=
EXTT2=
EXTT3=
EXTT4=
EXTT5=
EXTT6=
EXTT7=
EXTT8=
EXTT9=
EXTT10=
PLAYORDER=
